<?xml version="1.0" standalone="no"?>
<!DOCTYPE svg PUBLIC "-//W3C//DTD SVG 20010904//EN"
 "http://www.w3.org/TR/2001/REC-SVG-20010904/DTD/svg10.dtd">
<svg version="1.0" xmlns="http://www.w3.org/2000/svg"
 width="600.000000pt" height="567.000000pt" viewBox="0 0 600.000000 567.000000"
 preserveAspectRatio="xMidYMid meet">
<metadata>
Created by potrace 1.15, written by Peter Selinger 2001-2017
</metadata>
<g transform="translate(0.000000,567.000000) scale(0.100000,-0.100000)"
fill="#000000" stroke="none">
<path d="M721 2488 l-383 -1372 22 -18 c21 -17 110 -18 2029 -18 1961 0 2007
1 2049 20 58 26 110 68 128 101 13 26 744 2628 744 2649 0 6 -773 10 -2103 10
l-2103 0 -383 -1372z"/>
<path d="M5222 2244 c-202 -723 -323 -1142 -344 -1184 -46 -97 -161 -206 -269
-258 -158 -76 -50 -72 -1834 -72 l-1597 0 4 -109 c3 -121 13 -144 78 -188 l33
-23 2064 0 c2266 0 2092 -5 2146 60 15 17 29 45 32 63 3 18 4 662 3 1431 l-3
1400 -313 -1120z"/>
</g>
</svg>
